<svg width="20" height="22" viewBox="0 0 20 22" fill="none" xmlns="http://www.w3.org/2000/svg">
<path d="M5.5 12.1113L12.25 12.1113" stroke="white" stroke-width="2" stroke-linecap="round"/>
<path d="M5.5 7.66699L10 7.66699" stroke="white" stroke-width="2" stroke-linecap="round"/>
<path d="M5.5 16.5557L10 16.5557" stroke="white" stroke-width="2" stroke-linecap="round"/>
<path d="M16.75 12.1111V15C16.75 17.8284 16.75 19.2426 15.8713 20.1213C14.9926 21 13.5784 21 10.75 21H7C4.17157 21 2.75736 21 1.87868 20.1213C1 19.2426 1 17.8284 1 15V7C1 4.17157 1 2.75736 1.87868 1.87868C2.75736 1 4.17157 1 7 1H7.75" stroke="white" stroke-width="2"/>
<path d="M15.625 1L15.625 7.66667" stroke="white" stroke-width="2" stroke-linecap="round"/>
<path d="M19 4.33301L12.25 4.33301" stroke="white" stroke-width="2" stroke-linecap="round"/>
</svg>
