<svg width="28" height="28" viewBox="0 0 28 28" fill="none" xmlns="http://www.w3.org/2000/svg">
<g clip-path="url(#clip0_775_1061)">
<path d="M15.167 9.33366C15.167 6.75533 13.0787 4.66699 10.5003 4.66699C7.92199 4.66699 5.83366 6.75533 5.83366 9.33366C5.83366 11.912 7.92199 14.0003 10.5003 14.0003C13.0787 14.0003 15.167 11.912 15.167 9.33366ZM12.8337 9.33366C12.8337 10.617 11.7837 11.667 10.5003 11.667C9.21699 11.667 8.16699 10.617 8.16699 9.33366C8.16699 8.05033 9.21699 7.00033 10.5003 7.00033C11.7837 7.00033 12.8337 8.05033 12.8337 9.33366ZM1.16699 21.0003V23.3337H19.8337V21.0003C19.8337 17.897 13.6153 16.3337 10.5003 16.3337C7.38533 16.3337 1.16699 17.897 1.16699 21.0003ZM3.50033 21.0003C3.73366 20.172 7.35033 18.667 10.5003 18.667C13.6387 18.667 17.2437 20.1603 17.5003 21.0003H3.50033ZM23.3337 17.5003V14.0003H26.8337V11.667H23.3337V8.16699H21.0003V11.667H17.5003V14.0003H21.0003V17.5003H23.3337Z" fill="white"/>
</g>
<defs>
<clipPath id="clip0_775_1061">
<rect width="28" height="28" fill="white"/>
</clipPath>
</defs>
</svg>
