<svg width="30" height="28" viewBox="0 0 30 28" fill="none" xmlns="http://www.w3.org/2000/svg">
<g clip-path="url(#clip0_775_1056)">
<path d="M25.75 15H25.355L25.215 14.865C25.705 14.295 26 13.555 26 12.75C26 10.955 24.545 9.5 22.75 9.5C20.955 9.5 19.5 10.955 19.5 12.75C19.5 14.545 20.955 16 22.75 16C23.555 16 24.295 15.705 24.865 15.215L25 15.355V15.75L27.5 18.245L28.245 17.5L25.75 15ZM22.75 15C21.505 15 20.5 13.995 20.5 12.75C20.5 11.505 21.505 10.5 22.75 10.5C23.995 10.5 25 11.505 25 12.75C25 13.995 23.995 15 22.75 15Z" fill="white"/>
</g>
<g clip-path="url(#clip1_775_1056)">
<path d="M14.0003 6.88366C15.3537 6.88366 16.4503 7.98033 16.4503 9.33366C16.4503 10.687 15.3537 11.7837 14.0003 11.7837C12.647 11.7837 11.5503 10.687 11.5503 9.33366C11.5503 7.98033 12.647 6.88366 14.0003 6.88366ZM14.0003 17.3837C17.4653 17.3837 21.117 19.087 21.117 19.8337V21.117H6.88366V19.8337C6.88366 19.087 10.5353 17.3837 14.0003 17.3837ZM14.0003 4.66699C11.422 4.66699 9.33366 6.75533 9.33366 9.33366C9.33366 11.912 11.422 14.0003 14.0003 14.0003C16.5787 14.0003 18.667 11.912 18.667 9.33366C18.667 6.75533 16.5787 4.66699 14.0003 4.66699ZM14.0003 15.167C10.8853 15.167 4.66699 16.7303 4.66699 19.8337V23.3337H23.3337V19.8337C23.3337 16.7303 17.1153 15.167 14.0003 15.167Z" fill="white"/>
</g>
<defs>
<clipPath id="clip0_775_1056">
<rect width="12" height="12" fill="white" transform="translate(18 8)"/>
</clipPath>
<clipPath id="clip1_775_1056">
<rect width="28" height="28" fill="white"/>
</clipPath>
</defs>
</svg>
