<?xml version="1.0" encoding="utf-8"?>
<!-- Generator: Adobe Illustrator 26.1.0, SVG Export Plug-In . SVG Version: 6.00 Build 0)  -->
<svg version="1.1" id="Layer_1" xmlns="http://www.w3.org/2000/svg" xmlns:xlink="http://www.w3.org/1999/xlink" x="0px" y="0px"
	 viewBox="0 0 800 600" style="enable-background:new 0 0 800 600;" xml:space="preserve">
<style type="text/css">
	.st0{fill:#FFFFFF;}
</style>
<g>
	<g id="XMLID_00000036960619168247458040000008204950955216220833_">
		<g>
			<polygon class="st0" points="735.3,302.7 751.9,328.9 736.5,328.9 727,312.5 717.1,328.9 703.1,328.9 719,303 703.1,277.9 
				718.8,277.9 727.5,293.6 737.3,277.9 750.2,277.9 			"/>
			<path class="st0" d="M696.9,327c0,0.6,0,1.1,0,1.9c-1.9-0.5-3.6-0.4-5.3-0.3c-2.4,0.1-4.8-0.5-7.1,0.4c-0.5,0.2-0.9-0.1-0.9-0.6
				c-0.1-0.6-0.1-1.1-0.1-1.7c0-15.4,0-30.7,0-46.1c0-0.4,0-0.9,0-1.3c-0.1-1.1,0.4-1.4,1.5-1.4c3.4,0.1,6.8,0,10.2,0
				c1.7,0,1.8,0,1.8,1.7c0,4.4,0,8.9,0,13.3C696.9,304.2,696.9,315.6,696.9,327z"/>
			<path class="st0" d="M690.2,257.4c3.4,0,7.6,2.6,7.6,7.3c0,5.4-5.3,7.3-7.6,7.3s-7.6-1.8-7.6-7.2
				C682.6,259.4,686.9,257.4,690.2,257.4z"/>
			<polygon class="st0" points="675.7,259.2 675.7,271.8 644.7,271.9 644.7,289 671.5,288.9 671.5,300.9 644.6,300.9 644.6,328.9 
				631.1,328.9 630.9,259.2 			"/>
			<path class="st0" d="M623.2,277.9v10.8l-13.7-0.1c0,0,0.1,15.8,0,22.9c0,2.1,0.6,4.8,2.2,6.2c2.5,1.8,11.4,0.6,11.4,0.6v9.7
				c0,0-4.9,1.5-8.2,1.4c-2.4,0.1-8.3-0.4-9.8-1c-5.1-2.1-8-5.4-8.8-10.8c-0.2-1.2-0.2-2.5-0.2-3.8c0-7.8-0.1-25-0.1-25h-8.4V278
				l0,0h9.1l0.1-12.2h12.5V278h13.9V277.9z"/>
			<path class="st0" d="M571.8,311l13.3,0.1c0,0-0.8,5.6-2.9,8.2c-2,2.9-4.2,5.5-7.3,7.2c-5.8,3.2-11.9,4.8-18.6,3.1
				c-2.9-0.7-5.6-1.7-8.2-3.1c-4.1-2.2-6.7-5.6-8.7-9.7c-1.7-3.7-2.6-7.5-2.5-11.6c0-2-0.1-4,0.1-5.9c0.8-7.1,3.2-13.6,9.1-18.1
				c6.1-4.7,13.1-6,20.7-4.4c3.3,0.7,6.3,1.8,9.1,3.7c4,2.8,7.2,6.2,8.5,11.1c0.2,0.9,0.6,2.8,0.6,3.8h-13.4c0,0-0.9-6.2-7.3-7.4
				c-2.9-0.4-5.9-0.4-8.6,1.3c-1.2,0.8-2.3,1.6-3,2.9c-1.4,2.5-2.4,5.1-2.4,8c0,2.3-0.1,4.6,0,7c0.1,2.9,1.3,5.4,2.9,7.7
				c0.8,1.1,2.1,1.7,3.2,2.3c4.2,2.1,9.7,2,13.2-2.1C570.1,314.3,571.5,312.1,571.8,311z"/>
			<path class="st0" d="M530,292.5c1.8,6.1,1.7,13.7,1.7,13.7l-36.1,0.1c0.2,3.3,0.6,13.3,13.8,12.7c6.5-0.4,9.2-5.5,9.2-5.5
				s9.3,0,12.7,0c-1.5,5.9-4.9,10-9.8,12.9c-2.7,1.6-5.5,2.6-8.6,3.2c-2.1,0.4-4.2,0.8-6.3,0.7c-7.3-0.6-13.9-2.8-18.7-8.7
				c-2.5-3-3.8-6.6-4.6-10.4c-0.7-3.2-0.8-6.4-0.7-9.6c0.1-4.6,1.1-9,3.3-13.1c2.7-5.1,6.7-8.6,12.2-10.6c4.3-1.6,8.6-1.9,12.9-1.3
				C519.8,277.6,527.3,283,530,292.5z M496.1,297.9c7.5,0,14.8,0,22.3,0c0-6.2-3-11.4-11.4-11.4C501,286.5,496.1,289.9,496.1,297.9z
				"/>
			<path class="st0" d="M475.7,328.9h-13.1v-28c0-2.6,0-5.2-1.1-7.7c-1-2.1-2.5-3.5-4.7-4.5c-3.7-1.7-6.7-0.3-9.3,1.9
				c-2.1,1.7-3.1,4.3-3.1,7.1c0,7.5,0.1,31.2,0.1,31.2H431l0,0v-51h10.9c0,0,0,4.7,0,5.8c1.5-1.9,6.1-5.1,9.1-6.1
				c3.1-1,6.4-1.3,9.8-0.5c2.6,0.6,4.8,1.1,7,2.4c3.9,2.3,6,5.8,7.2,10.1c0.8,2.7,0.7,5.4,0.7,8.1
				C475.7,306.8,475.7,328.9,475.7,328.9z"/>
			<path class="st0" d="M422.2,293.1c0.1,10.7,0.1,35.8,0.1,35.8h-13.1c0,0,0-19.2,0-27.9c0-2.6,0-5.2-1.1-7.7
				c-1-2.2-2.6-3.6-4.8-4.7c-2.6-1.2-4.9-0.7-7,0.5s-3.9,2.9-4.7,5.4c-0.4,1.2-0.6,2.4-0.6,3.7c0,9.4,0,30.7,0,30.7h-13.4v-51h10.9
				c0,0,0,3.7,0,5.1c1.4-0.5,5.6-5.8,14.7-6c5.5,0,10.6,0.9,14.5,5.1C420.5,285.2,422.1,288.9,422.2,293.1z"/>
			<path class="st0" d="M370.7,300.1c0.4,3.1,0.2,6-0.2,9c-0.5,3.5-1.6,6.8-3.5,9.8c-2.6,4.3-6.4,7.2-11,9.1
				c-3.3,1.4-6.8,2.2-11.3,2.2c-4.5-0.5-9.5-1.7-14.1-4.8c-4.5-3-7-7.4-8.8-12.2c-0.8-2-1.2-4.3-1.1-6.6c0.1-1.9-0.1-3.8,0-5.7
				c0.2-4.8,1.3-9.2,4-13.3c3.4-5.2,7.9-8.8,13.9-10.5c3-0.8,6.1-1.4,9.2-0.9c5.1,0.8,10,2.1,14.1,5.4c2.7,2.2,4.6,4.9,6.1,7.9
				C369.6,292.9,370.3,296.4,370.7,300.1z M357.2,308.2c0.7-4.5,0.6-9-0.9-13.3c-0.6-1.6-1.5-3.2-2.9-4.3c-2.6-1.9-5.5-3.1-8.8-2.6
				c-3.9,0.6-6.8,2.6-8.8,5.9c-1.7,2.9-1.9,6.1-1.8,9.4c0,2.6-0.1,5.2,1,7.7c1,2.3,2,4.4,4.2,5.8c2.4,1.5,4.9,1.9,7.6,1.8
				c2.6-0.2,4.9-1.1,6.9-2.8C355.9,313.7,356.8,311,357.2,308.2z"/>
			<path class="st0" d="M316.1,280.3c-4.4,0-8.7,0-13,0c-0.7,0-1-0.3-1.3-0.9s-0.7-1.1-1-1.6c-1.4-2.7-3.7-4.3-6.4-5.5
				c-1.4-0.6-2.8-1-4.2-1.2c-4-0.4-8-0.1-11.6,2.1c-3.5,2.2-5.9,5-7.3,8.9c-2.2,6-2.1,12.2-1.5,18.4c0.6,5.4,2.6,10.5,7.3,13.9
				c1.7,1.2,4.4,3.2,8.6,3.2c1.3,0.3,4.3,0.3,7.7-1.1c4.2-1.6,6.8-3.9,9-9.6l12.9,0.5c0.2,1.4-0.3,3.1-0.7,4.3
				c-0.9,2.9-1.6,4.8-3.4,7.3c-3.4,4.6-8,7.7-13.4,9.5c-3.6,1.2-7.3,2-11.2,1.8c-3.9-0.2-7.6-1-11.3-2.3c-2.6-0.9-5-2.2-7.3-3.7
				c-3.2-2.2-5.8-5.1-7.8-8.5c-1.8-3.1-3.2-6.4-3.9-9.9c-1.3-6.3-1.8-12.6-0.5-19c0.4-1.8,0.5-3.6,0.9-5.4c1-3.7,2.5-7.2,4.7-10.4
				c0.9-1.2,1.7-2.4,2.7-3.5c3.2-3.4,7.1-5.7,11.5-7.2c4.5-1.5,9.1-2.2,13.9-1.8c4.9,0.5,9.7,1.5,13.9,4.2c2.6,1.6,5,3.5,6.8,6.2
				c1.3,2,2.8,3.9,3.7,6.1C315,276.7,315.5,278.4,316.1,280.3z"/>
			<path class="st0" d="M206.6,273.6c1,3.6,1,7.4,0.8,11.1c-0.7,9.9-4.8,17.9-13.3,23.3c-2.6,1.7-5.6,2.5-8.6,3.3
				c-3.2,0.8-9.4,2.2-14.9-1.1c-3.4-2.5-2.5-2.2-5.2,0.3c-7,6.6-35.2,31.6-35.1,32.1c0.2,0.6,95.9,0.6,97.5,0c3.8,0,5.1,0.5,5.7,2
				c2.2,4.6,4.5,9.3,6.4,14.1c1.2,2.9,0.9,5.7-0.6,8.3c-2.8,5-7.1,7.7-12.9,7.7c-51.8,0-103.7,0-155.5,0c-5.2,0-9.3-2.2-12.3-6.2
				c-1.9-2.5-2.1-5.5-1.4-8.5c0.6-2.7,1.6-5.2,2.8-7.7c1.2-2.6,2.1-5.3,3.4-7.8c0.8-1.6,1.8-2.4,3.8-2.4c7.4,0.1,14.8,0,22.2,0
				c1.1,0,1.8-0.5,2.6-1.2c2.1-2.1,4.1-4.3,6.3-6.2c5.5-4.7,10.4-9.9,15.8-14.7c3-2.7,5.8-5.5,8.8-8.2c6.2-5.5,12-11.5,18.3-17
				c2.4-2.1,4.6-4.4,7-6.5c0.6-1.3,0.1-2.5-0.4-3.8c-0.4-3.2-0.5-6.5-0.1-9.7c0.5-4.2,2-8,4.3-11.5c3.6-5.5,8.4-9.3,14.5-11.6
				c1.9-0.7,3.8-1.4,5.9-1.4c1.1,0,2.2-0.5,3.3-0.5c4.8,0.2,9.5,0.6,14,2.6c-0.4,1.1-1.4,1.4-2.1,2c-4.5,4.1-9,8.3-13.8,12.1
				c-3.6,2.9-4.5,4.5-3.6,9.1c1.1,5.8,3.9,10.7,9.7,13.1c3,1.2,6,0.8,8.5-1.1c3.6-2.8,6.8-5.9,10.1-9c2-1.9,4.4-3.5,6.3-5.6
				c0.3-0.4,0.7-0.8,1.3-0.5C206.7,272.7,206.5,273.2,206.6,273.6z M170.9,363.3c4.7,0,3.9-3.7,3.9-3.7l-0.1-3.1
				c0,0,0.4-3.8-3.5-3.8c-0.6-0.1-39.4,0-41.1,0.1c-2.3,0-3.5,1.2-3.6,3.5c0,1,0,2,0,3c0.1,2.9,0.8,4.1,3.6,4.1
				C143.2,363.4,170.3,363.3,170.9,363.3z"/>
			<path class="st0" d="M99.1,317.7c1.2-0.2,2.5-0.2,3.8-0.2c0.2,0.7-0.4,0.9-0.7,1.2c-3.1,3-6.1,6-9.2,9c-1.8,1.7-3.9,3-5.6,4.9
				c-1.2,1.3-2.9,0.9-4.2,0.6c-7.1-1.5-12-5.5-14.4-12.4c-0.6-1.6-0.9-3.4-0.8-5.2c0.2-7.6,0.6-73.7,0.7-78.2c0-2.9,1.1-5.4,2.7-7.8
				c1.6-2.5,3.4-4.7,6-6.1c3.9-2.2,8.1-3.4,12.6-3.4c15,0,102.1,0,118.6,0.1c5.4,0,10.1,2,14,5.9c2.1,2.1,3.9,4.2,4.9,7.1
				c0.6,2,1.3,4,1.3,6.1c0,3-0.1,51.6,0.6,72.8c0.2,4.9-0.9,9.5-3.7,13.6c-2.5,3.6-6,5.9-10.3,7.1c-2.6,0.7-5.1,0.7-7.7,0.7
				c-15.5,0-31.1,0-46.6,0c-0.7,0-1.4,0-2.1,0c-0.1-0.2-0.3-0.4-0.4-0.6c0.8-0.6,1.5-1.2,2.2-1.9c3.5-3.4,6.9-6.8,10.3-10.3
				c1-1,2.1-1.5,3.5-1.4c10.5,0,21.1,0,31.6,0c1.5,0,2.9-0.3,4.4-0.5c1.5-0.1,2.2-1.2,2.2-2.8c0-3,0.1-5.9,0-8.9
				c0-2,0.4-3.9,1.4-5.6c0.8-1.4,1.3-3,2.1-4.4c0.8-1.5,1.1-3.2,1.5-4.8c1.4-4.8,1.3-9.7,1-14.7c-0.3-4.5-1.6-8.6-3.4-12.7
				c0-0.1,0-0.2-0.1-0.2c-1.8-1.7-1.5-4-1.3-6.1c0.4-5.4,0.5-10.8,0.6-16.2c0-2.7-3.1-6.3-5.7-6.3c-0.5,0-107.6,0.4-118.4,0.1
				c-3-0.1-4.9,1.4-6.2,3.9c-0.5,0.9-0.4,63.9-0.4,75.1c0,0.5,0,1,0,1.5c0.1,1.2,0.7,1.9,1.9,1.9C90.1,318,94.7,318.6,99.1,317.7z"
				/>
		</g>
	</g>
</g>
<image style="display:none;overflow:visible;enable-background:new    ;" width="892" height="308" xlink:href="C7F80332.png"  transform="matrix(0.8481 0 0 0.8481 21.9921 169.3878)">
</image>
</svg>
