<?xml version="1.0" encoding="utf-8"?>
<!-- Generator: Adobe Illustrator 26.1.0, SVG Export Plug-In . SVG Version: 6.00 Build 0)  -->
<svg version="1.1" id="Layer_1" xmlns="http://www.w3.org/2000/svg" xmlns:xlink="http://www.w3.org/1999/xlink" x="0px" y="0px"
	 viewBox="0 0 500 500" style="enable-background:new 0 0 500 500;" xml:space="preserve">
<g>
	<path d="M247.93,219.88c-1.02-7.59-1.17-15.25-0.33-22.8c1.08-9.79,4.77-18.8,10.13-27.09c8.33-12.89,19.78-21.94,34.08-27.35
		c4.45-1.68,8.98-3.23,13.92-3.24c2.6,0,5.21-1.2,7.79-1.12c11.19,0.38,22.31,1.33,32.95,6.15c-0.83,2.62-3.34,3.26-4.92,4.71
		c-10.58,9.71-21.03,19.57-32.31,28.5c-8.56,6.77-10.47,10.51-8.32,21.31c2.7,13.6,9.15,25.16,22.8,30.78
		c6.96,2.87,13.99,1.97,20.05-2.7c8.39-6.47,15.96-13.88,23.61-21.19c4.78-4.57,10.34-8.26,14.88-13.11
		c0.77-0.82,1.59-1.86,2.95-1.27c1.11,0.49,0.8,1.67,1.06,2.58c2.45,8.58,2.41,17.41,1.79,26.12
		c-1.66,23.13-11.16,42.09-31.24,54.81c-6.15,3.9-13.06,5.91-20.14,7.74c-7.56,1.95-22.15,5.23-35.04-2.54
		c-8.05-5.82-5.96-5.23-12.28,0.72c-16.52,15.52-82.73,74.14-82.33,75.34c0.42,1.28,225.2,1.29,228.92,0c9,0,12.08,1.15,13.33,4.58
		c5.29,10.9,10.56,21.83,15.12,33.08c2.73,6.73,2.16,13.39-1.3,19.54c-6.57,11.65-16.7,18.07-30.19,18.08
		c-121.71,0.08-243.42,0.03-365.13,0.06c-12.18,0-21.81-5.11-28.9-14.64c-4.34-5.84-4.92-12.85-3.37-19.93
		c1.38-6.29,3.81-12.19,6.53-18.02c2.83-6.07,5.03-12.42,8.05-18.42c1.91-3.79,4.26-5.7,8.81-5.65c17.41,0.2,34.82-0.01,52.23,0.04
		c2.59,0.01,4.35-1.09,6.04-2.81c4.88-4.95,9.54-10.16,14.79-14.68c12.79-11.03,24.41-23.3,37.06-34.44
		c7.08-6.24,13.63-13,20.64-19.26c14.57-12.99,28.2-26.98,42.87-39.83c5.6-4.9,10.74-10.26,16.33-15.14
		C250.21,225.64,249.17,222.75,247.93,219.88z"/>
	<path d="M273.03,332.7c1.75-1.47,3.61-2.83,5.24-4.44c8.12-8.03,16.25-16.06,24.2-24.25c2.39-2.46,4.91-3.42,8.32-3.41
		c24.71,0.09,49.42-0.04,74.13,0.04c3.52,0.01,6.88-0.78,10.32-1.13c3.56-0.36,5.18-2.71,5.22-6.61c0.07-6.96,0.16-13.92,0.04-20.87
		c-0.08-4.76,0.89-9.1,3.31-13.26c1.9-3.26,3.04-6.96,4.89-10.25c1.98-3.53,2.53-7.45,3.59-11.2c3.19-11.29,2.96-22.86,2.28-34.46
		c-0.62-10.51-3.82-20.27-8.03-29.79c-0.07-0.15-0.05-0.37-0.15-0.47c-4.32-4.07-3.46-9.3-3.13-14.34
		c0.84-12.71,1.27-25.42,1.36-38.16c0.04-6.35-7.15-14.9-13.44-14.89c-1.15,0-252.55,0.83-277.89,0.15
		c-7.08-0.19-11.41,3.38-14.64,9.11c-1.23,2.17-1.03,149.92-1.02,176.26c0,1.16-0.07,2.33,0.04,3.48c0.26,2.82,1.57,4.42,4.36,4.33
		c10.57-0.32,21.18,1.07,31.71-0.89c2.89-0.54,5.9-0.4,8.87-0.57c0.48,1.67-0.97,2.07-1.65,2.75c-7.17,7.11-14.39,14.16-21.64,21.18
		c-4.15,4.03-9.11,7.13-13.06,11.41c-2.82,3.05-6.69,2.07-9.86,1.42c-16.6-3.43-28.22-13.01-33.76-29.2
		c-1.31-3.84-2.06-7.93-1.98-12.17c0.36-17.89,1.48-173.12,1.55-183.68c0.05-6.8,2.67-12.75,6.25-18.39
		c3.68-5.79,7.98-10.94,14.05-14.33c9.21-5.14,19.03-8.04,29.68-8.05c35.33-0.05,239.68-0.05,278.48,0.17
		c12.66,0.07,23.72,4.77,32.81,13.87c4.85,4.85,9.24,9.95,11.38,16.57c1.51,4.68,3.05,9.37,3.02,14.4
		c-0.04,7.12-0.33,121.05,1.48,170.87c0.41,11.39-2.06,22.35-8.72,31.84c-5.95,8.48-13.99,13.94-24.24,16.72
		c-6.11,1.66-12.07,1.62-18.14,1.63c-36.49,0.06-72.97,0.03-109.46,0.03c-1.61,0-3.22,0-4.83,0
		C273.65,333.66,273.34,333.18,273.03,332.7z"/>
</g>
</svg>
