<?xml version="1.0" encoding="utf-8"?>
<!-- Generator: Adobe Illustrator 26.1.0, SVG Export Plug-In . SVG Version: 6.00 Build 0)  -->
<svg version="1.1" id="Layer_1" xmlns="http://www.w3.org/2000/svg" xmlns:xlink="http://www.w3.org/1999/xlink" x="0px" y="0px"
	 viewBox="0 0 500 500" style="enable-background:new 0 0 500 500;" xml:space="preserve">
<style type="text/css">
	.st0{fill:#FFFFFF;}
</style>
<g>
	<g id="XMLID_00000080889172869408580730000016072118906044800698_">
		<g>
			<path class="st0" d="M464.4,393.9c2.7,6.7,2.2,13.4-1.3,19.5c-6.6,11.6-16.7,18.1-30.2,18.1c-121.7,0.1-243.4,0-365.1,0.1
				c-12.2,0-21.8-5.1-28.9-14.6c-4.3-5.8-4.9-12.9-3.4-19.9c1.4-6.3,3.8-12.2,6.5-18c2.8-6.1,5-12.4,8-18.4c1.9-3.8,4.3-5.7,8.8-5.6
				c17.4,0.2,34.8,0,52.2,0c2.6,0,4.4-1.1,6-2.8c4.9-5,9.5-10.2,14.8-14.7c12.8-11,24.4-23.3,37.1-34.4c7.1-6.2,13.6-13,20.6-19.3
				c14.6-13,28.2-27,42.9-39.8c5.6-4.9,10.7-10.3,16.3-15.1c1.4-3.1,0.3-6-0.9-8.9c-1-7.6-1.2-15.2-0.3-22.8
				c1.1-9.8,4.8-18.8,10.1-27.1c8.3-12.9,19.8-21.9,34.1-27.4c4.5-1.7,9-3.2,13.9-3.2c2.6,0,5.2-1.2,7.8-1.1
				c11.2,0.4,22.3,1.3,33,6.1c-0.8,2.6-3.3,3.3-4.9,4.7c-10.6,9.7-21,19.6-32.3,28.5c-8.6,6.8-10.5,10.5-8.3,21.3
				c2.7,13.6,9.1,25.2,22.8,30.8c7,2.9,14,2,20-2.7c8.4-6.5,16-13.9,23.6-21.2c4.8-4.6,10.3-8.3,14.9-13.1c0.8-0.8,1.6-1.9,2.9-1.3
				c1.1,0.5,0.8,1.7,1.1,2.6c2.5,8.6,2.4,17.4,1.8,26.1c-1.7,23.1-11.2,42.1-31.2,54.8c-6.1,3.9-13.1,5.9-20.1,7.7
				c-7.6,2-22.1,5.2-35-2.5c-8.1-5.8-6-5.2-12.3,0.7c-16.5,15.5-82.7,74.1-82.3,75.3c0.4,1.3,225.2,1.3,228.9,0
				c9,0,12.1,1.1,13.3,4.6C454.6,371.7,459.8,382.6,464.4,393.9z"/>
			<path class="st0" d="M439.4,283.9c0.4,11.4-2.1,22.4-8.7,31.8c-6,8.5-14,13.9-24.2,16.7c-6.1,1.7-12.1,1.6-18.1,1.6
				c-36.5,0.1-73,0-109.5,0c-1.6,0-3.2,0-4.8,0c-0.3-0.5-0.6-0.9-0.9-1.4c1.8-1.5,3.6-2.8,5.2-4.4c8.1-8,16.2-16.1,24.2-24.2
				c2.4-2.5,4.9-3.4,8.3-3.4c24.7,0.1,49.4,0,74.1,0c3.5,0,6.9-0.8,10.3-1.1c3.6-0.4,5.2-2.7,5.2-6.6c0.1-7,0.2-13.9,0-20.9
				c-0.1-4.8,0.9-9.1,3.3-13.3c1.9-3.3,3-7,4.9-10.2c2-3.5,2.5-7.4,3.6-11.2c3.2-11.3,3-22.9,2.3-34.5c-0.6-10.5-3.8-20.3-8-29.8
				c-0.1-0.2-0.1-0.4-0.1-0.5c-4.3-4.1-3.5-9.3-3.1-14.3c0.8-12.7,1.3-25.4,1.4-38.2c0-6.3-7.1-14.9-13.4-14.9
				c-1.1,0-252.5,0.8-277.9,0.2c-7.1-0.2-11.4,3.4-14.6,9.1c-1.2,2.2-1,149.9-1,176.3c0,1.2-0.1,2.3,0,3.5c0.3,2.8,1.6,4.4,4.4,4.3
				c10.6-0.3,21.2,1.1,31.7-0.9c2.9-0.5,5.9-0.4,8.9-0.6c0.5,1.7-1,2.1-1.6,2.8c-7.2,7.1-14.4,14.2-21.6,21.2
				c-4.2,4-9.1,7.1-13.1,11.4c-2.8,3-6.7,2.1-9.9,1.4c-16.6-3.4-28.2-13-33.8-29.2c-1.3-3.8-2.1-7.9-2-12.2
				c0.4-17.9,1.5-173.1,1.5-183.7c0-6.8,2.7-12.8,6.2-18.4c3.7-5.8,8-10.9,14.1-14.3c9.2-5.1,19-8,29.7-8.1
				c35.3,0,239.7,0,278.5,0.2c12.7,0.1,23.7,4.8,32.8,13.9c4.8,4.9,9.2,10,11.4,16.6c1.5,4.7,3.1,9.4,3,14.4
				C437.8,120.2,437.5,234.1,439.4,283.9z"/>
		</g>
		<g>
		</g>
	</g>
</g>
</svg>
