<?xml version="1.0"?>
<svg width="339" height="76" xmlns="http://www.w3.org/2000/svg" xmlns:svg="http://www.w3.org/2000/svg" xmlns:xlink="http://www.w3.org/1999/xlink" enable-background="new 0 0 800 600" version="1.1" xml:space="preserve">
 <style type="text/css">.st0{fill:#FFFFFF;}</style>
 <g class="layer">
  <title>Layer 1</title>
  <g id="svg_1">
   <g id="XMLID_00000036960619168247458040000008204950955216220833_">
    <g id="svg_2">
     <polygon class="st0" id="svg_3" points="327.99388548731804,40.54707336425781 335.94459959864616,53.09571075439453 328.56871458888054,53.09571075439453 324.01857420802116,45.24083709716797 319.2769360244274,53.09571075439453 312.5714916884899,53.09571075439453 320.1869396865368,40.69075393676758 312.5714916884899,28.6689453125 320.0911144912243,28.6689453125 324.25804564356804,36.18856430053711 328.9518322646618,28.6689453125 335.1303295791149,28.6689453125 "/>
     <path class="st0" d="m309.6,52.19c0,0.29 0,0.53 0,0.91c-0.91,-0.24 -1.72,-0.19 -2.54,-0.14c-1.15,0.05 -2.3,-0.24 -3.4,0.19c-0.24,0.1 -0.43,-0.05 -0.43,-0.29c-0.05,-0.29 -0.05,-0.53 -0.05,-0.81c0,-7.38 0,-14.7 0,-22.08c0,-0.19 0,-0.43 0,-0.62c-0.05,-0.53 0.19,-0.67 0.72,-0.67c1.63,0.05 3.26,0 4.89,0c0.81,0 0.86,0 0.86,0.81c0,2.11 0,4.26 0,6.37c-0.05,5.41 -0.05,10.87 -0.05,16.33z" id="svg_4"/>
     <path class="st0" d="m306.39,18.85c1.63,0 3.64,1.25 3.64,3.5c0,2.59 -2.54,3.5 -3.64,3.5s-3.64,-0.86 -3.64,-3.45c0,-2.59 2.06,-3.54 3.64,-3.54z" id="svg_5"/>
     <polygon class="st0" id="svg_6" points="299.44813963770866,19.71247673034668 299.44813963770866,25.747316360473633 284.60048338770866,25.795217514038086 284.60048338770866,33.98536682128906 297.4364819228649,33.93746566772461 297.4364819228649,39.684940338134766 284.55260130763054,39.684940338134766 284.55260130763054,53.09571075439453 278.0867199599743,53.09571075439453 277.9908947646618,19.71247673034668 "/>
     <path class="st0" d="m274.3,28.67l0,5.17l-6.56,-0.05c0,0 0.05,7.57 0,10.97c0,1.01 0.29,2.3 1.05,2.97c1.2,0.86 5.46,0.29 5.46,0.29l0,4.65c0,0 -2.35,0.72 -3.93,0.67c-1.15,0.05 -3.98,-0.19 -4.69,-0.48c-2.44,-1.01 -3.83,-2.59 -4.21,-5.17c-0.1,-0.57 -0.1,-1.2 -0.1,-1.82c0,-3.74 -0.05,-11.97 -0.05,-11.97l-4.02,0l0,-5.17l0,0l4.36,0l0.05,-5.84l5.99,0l0,5.84l6.66,0l0,-0.05z" id="svg_7"/>
     <path class="st0" d="m249.68,44.52l6.37,0.05c0,0 -0.38,2.68 -1.39,3.93c-0.96,1.39 -2.01,2.63 -3.5,3.45c-2.78,1.53 -5.7,2.3 -8.91,1.48c-1.39,-0.34 -2.68,-0.81 -3.93,-1.48c-1.96,-1.05 -3.21,-2.68 -4.17,-4.65c-0.81,-1.77 -1.25,-3.59 -1.2,-5.56c0,-0.96 -0.05,-1.92 0.05,-2.83c0.38,-3.4 1.53,-6.51 4.36,-8.67c2.92,-2.25 6.27,-2.87 9.91,-2.11c1.58,0.34 3.02,0.86 4.36,1.77c1.92,1.34 3.45,2.97 4.07,5.32c0.1,0.43 0.29,1.34 0.29,1.82l-6.42,0c0,0 -0.43,-2.97 -3.5,-3.54c-1.39,-0.19 -2.83,-0.19 -4.12,0.62c-0.57,0.38 -1.1,0.77 -1.44,1.39c-0.67,1.2 -1.15,2.44 -1.15,3.83c0,1.1 -0.05,2.2 0,3.35c0.05,1.39 0.62,2.59 1.39,3.69c0.38,0.53 1.01,0.81 1.53,1.1c2.01,1.01 4.65,0.96 6.32,-1.01c0.24,-0.38 0.91,-1.44 1.05,-1.96z" id="svg_8"/>
     <path class="st0" d="m229.66,35.66c0.86,2.92 0.81,6.56 0.81,6.56l-17.29,0.05c0.1,1.58 0.29,6.37 6.61,6.08c3.11,-0.19 4.41,-2.63 4.41,-2.63s4.45,0 6.08,0c-0.72,2.83 -2.35,4.79 -4.69,6.18c-1.29,0.77 -2.63,1.25 -4.12,1.53c-1.01,0.19 -2.01,0.38 -3.02,0.34c-3.5,-0.29 -6.66,-1.34 -8.96,-4.17c-1.2,-1.44 -1.82,-3.16 -2.2,-4.98c-0.34,-1.53 -0.38,-3.07 -0.34,-4.6c0.05,-2.2 0.53,-4.31 1.58,-6.27c1.29,-2.44 3.21,-4.12 5.84,-5.08c2.06,-0.77 4.12,-0.91 6.18,-0.62c4.21,0.48 7.81,3.07 9.1,7.62zm-16.24,2.59c3.59,0 7.09,0 10.68,0c0,-2.97 -1.44,-5.46 -5.46,-5.46c-2.87,0 -5.22,1.63 -5.22,5.46z" id="svg_9"/>
     <path class="st0" d="m203.66,53.1l-6.27,0l0,-13.41c0,-1.25 0,-2.49 -0.53,-3.69c-0.48,-1.01 -1.2,-1.68 -2.25,-2.16c-1.77,-0.81 -3.21,-0.14 -4.45,0.91c-1.01,0.81 -1.48,2.06 -1.48,3.4c0,3.59 0.05,14.94 0.05,14.94l-6.47,0l0,0l0,-24.43l5.22,0c0,0 0,2.25 0,2.78c0.72,-0.91 2.92,-2.44 4.36,-2.92c1.48,-0.48 3.07,-0.62 4.69,-0.24c1.25,0.29 2.3,0.53 3.35,1.15c1.87,1.1 2.87,2.78 3.45,4.84c0.38,1.29 0.34,2.59 0.34,3.88c0,4.36 0,14.94 0,14.94z" id="svg_10"/>
     <path class="st0" d="m178.03,35.95c0.05,5.12 0.05,17.15 0.05,17.15l-6.27,0c0,0 0,-9.2 0,-13.36c0,-1.25 0,-2.49 -0.53,-3.69c-0.48,-1.05 -1.25,-1.72 -2.3,-2.25c-1.25,-0.57 -2.35,-0.34 -3.35,0.24s-1.87,1.39 -2.25,2.59c-0.19,0.57 -0.29,1.15 -0.29,1.77c0,4.5 0,14.7 0,14.7l-6.42,0l0,-24.43l5.22,0c0,0 0,1.77 0,2.44c0.67,-0.24 2.68,-2.78 7.04,-2.87c2.63,0 5.08,0.43 6.94,2.44c1.34,1.48 2.11,3.26 2.16,5.27z" id="svg_11"/>
     <path class="st0" d="m153.37,39.3c0.19,1.48 0.1,2.87 -0.1,4.31c-0.24,1.68 -0.77,3.26 -1.68,4.69c-1.25,2.06 -3.07,3.45 -5.27,4.36c-1.58,0.67 -3.26,1.05 -5.41,1.05c-2.16,-0.24 -4.55,-0.81 -6.75,-2.3c-2.16,-1.44 -3.35,-3.54 -4.21,-5.84c-0.38,-0.96 -0.57,-2.06 -0.53,-3.16c0.05,-0.91 -0.05,-1.82 0,-2.73c0.1,-2.3 0.62,-4.41 1.92,-6.37c1.63,-2.49 3.78,-4.21 6.66,-5.03c1.44,-0.38 2.92,-0.67 4.41,-0.43c2.44,0.38 4.79,1.01 6.75,2.59c1.29,1.05 2.2,2.35 2.92,3.78c0.77,1.63 1.1,3.3 1.29,5.08zm-6.47,3.88c0.34,-2.16 0.29,-4.31 -0.43,-6.37c-0.29,-0.77 -0.72,-1.53 -1.39,-2.06c-1.25,-0.91 -2.63,-1.48 -4.21,-1.25c-1.87,0.29 -3.26,1.25 -4.21,2.83c-0.81,1.39 -0.91,2.92 -0.86,4.5c0,1.25 -0.05,2.49 0.48,3.69c0.48,1.1 0.96,2.11 2.01,2.78c1.15,0.72 2.35,0.91 3.64,0.86c1.25,-0.1 2.35,-0.53 3.3,-1.34c1.05,-1.01 1.48,-2.3 1.68,-3.64z" id="svg_12"/>
     <path class="st0" d="m127.22,29.82c-2.11,0 -4.17,0 -6.23,0c-0.34,0 -0.48,-0.14 -0.62,-0.43s-0.34,-0.53 -0.48,-0.77c-0.67,-1.29 -1.77,-2.06 -3.07,-2.63c-0.67,-0.29 -1.34,-0.48 -2.01,-0.57c-1.92,-0.19 -3.83,-0.05 -5.56,1.01c-1.68,1.05 -2.83,2.39 -3.5,4.26c-1.05,2.87 -1.01,5.84 -0.72,8.81c0.29,2.59 1.25,5.03 3.5,6.66c0.81,0.57 2.11,1.53 4.12,1.53c0.62,0.14 2.06,0.14 3.69,-0.53c2.01,-0.77 3.26,-1.87 4.31,-4.6l6.18,0.24c0.1,0.67 -0.14,1.48 -0.34,2.06c-0.43,1.39 -0.77,2.3 -1.63,3.5c-1.63,2.2 -3.83,3.69 -6.42,4.55c-1.72,0.57 -3.5,0.96 -5.36,0.86c-1.87,-0.1 -3.64,-0.48 -5.41,-1.1c-1.25,-0.43 -2.39,-1.05 -3.5,-1.77c-1.53,-1.05 -2.78,-2.44 -3.74,-4.07c-0.86,-1.48 -1.53,-3.07 -1.87,-4.74c-0.62,-3.02 -0.86,-6.03 -0.24,-9.1c0.19,-0.86 0.24,-1.72 0.43,-2.59c0.48,-1.77 1.2,-3.45 2.25,-4.98c0.43,-0.57 0.81,-1.15 1.29,-1.68c1.53,-1.63 3.4,-2.73 5.51,-3.45c2.16,-0.72 4.36,-1.05 6.66,-0.86c2.35,0.24 4.65,0.72 6.66,2.01c1.25,0.77 2.39,1.68 3.26,2.97c0.62,0.96 1.34,1.87 1.77,2.92c0.53,0.77 0.77,1.58 1.05,2.49z" id="svg_13"/>
     <path class="st0" d="m74.77,26.61c0.48,1.72 0.48,3.54 0.38,5.32c-0.34,4.74 -2.3,8.57 -6.37,11.16c-1.25,0.81 -2.68,1.2 -4.12,1.58c-1.53,0.38 -4.5,1.05 -7.14,-0.53c-1.63,-1.2 -1.2,-1.05 -2.49,0.14c-3.35,3.16 -16.86,15.14 -16.81,15.37c0.1,0.29 45.93,0.29 46.7,0c1.82,0 2.44,0.24 2.73,0.96c1.05,2.2 2.16,4.45 3.07,6.75c0.57,1.39 0.43,2.73 -0.29,3.98c-1.34,2.39 -3.4,3.69 -6.18,3.69c-24.81,0 -49.67,0 -74.48,0c-2.49,0 -4.45,-1.05 -5.89,-2.97c-0.91,-1.2 -1.01,-2.63 -0.67,-4.07c0.29,-1.29 0.77,-2.49 1.34,-3.69c0.57,-1.25 1.01,-2.54 1.63,-3.74c0.38,-0.77 0.86,-1.15 1.82,-1.15c3.54,0.05 7.09,0 10.63,0c0.53,0 0.86,-0.24 1.25,-0.57c1.01,-1.01 1.96,-2.06 3.02,-2.97c2.63,-2.25 4.98,-4.74 7.57,-7.04c1.44,-1.29 2.78,-2.63 4.21,-3.93c2.97,-2.63 5.75,-5.51 8.76,-8.14c1.15,-1.01 2.2,-2.11 3.35,-3.11c0.29,-0.62 0.05,-1.2 -0.19,-1.82c-0.19,-1.53 -0.24,-3.11 -0.05,-4.65c0.24,-2.01 0.96,-3.83 2.06,-5.51c1.72,-2.63 4.02,-4.45 6.94,-5.56c0.91,-0.34 1.82,-0.67 2.83,-0.67c0.53,0 1.05,-0.24 1.58,-0.24c2.3,0.1 4.55,0.29 6.71,1.25c-0.19,0.53 -0.67,0.67 -1.01,0.96c-2.16,1.96 -4.31,3.98 -6.61,5.8c-1.72,1.39 -2.16,2.16 -1.72,4.36c0.53,2.78 1.87,5.12 4.65,6.27c1.44,0.57 2.87,0.38 4.07,-0.53c1.72,-1.34 3.26,-2.83 4.84,-4.31c0.96,-0.91 2.11,-1.68 3.02,-2.68c0.14,-0.19 0.34,-0.38 0.62,-0.24c0.29,0.1 0.19,0.34 0.24,0.53zm-17.1,42.96c2.25,0 1.87,-1.77 1.87,-1.77l-0.05,-1.48c0,0 0.19,-1.82 -1.68,-1.82c-0.29,-0.05 -18.87,0 -19.69,0.05c-1.1,0 -1.68,0.57 -1.72,1.68c0,0.48 0,0.96 0,1.44c0.05,1.39 0.38,1.96 1.72,1.96c6.27,0 19.25,-0.05 19.54,-0.05z" id="svg_14"/>
     <path class="st0" d="m23.28,47.73c0.57,-0.1 1.2,-0.1 1.82,-0.1c0.1,0.34 -0.19,0.43 -0.34,0.57c-1.48,1.44 -2.92,2.87 -4.41,4.31c-0.86,0.81 -1.87,1.44 -2.68,2.35c-0.57,0.62 -1.39,0.43 -2.01,0.29c-3.4,-0.72 -5.75,-2.63 -6.9,-5.94c-0.29,-0.77 -0.43,-1.63 -0.38,-2.49c0.1,-3.64 0.29,-35.3 0.34,-37.45c0,-1.39 0.53,-2.59 1.29,-3.74c0.77,-1.2 1.63,-2.25 2.87,-2.92c1.87,-1.05 3.88,-1.63 6.03,-1.63c7.18,0 48.9,0 56.8,0.05c2.59,0 4.84,0.96 6.71,2.83c1.01,1.01 1.87,2.01 2.35,3.4c0.29,0.96 0.62,1.92 0.62,2.92c0,1.44 -0.05,24.71 0.29,34.87c0.1,2.35 -0.43,4.55 -1.77,6.51c-1.2,1.72 -2.87,2.83 -4.93,3.4c-1.25,0.34 -2.44,0.34 -3.69,0.34c-7.42,0 -14.9,0 -22.32,0c-0.34,0 -0.67,0 -1.01,0c-0.05,-0.1 -0.14,-0.19 -0.19,-0.29c0.38,-0.29 0.72,-0.57 1.05,-0.91c1.68,-1.63 3.3,-3.26 4.93,-4.93c0.48,-0.48 1.01,-0.72 1.68,-0.67c5.03,0 10.11,0 15.14,0c0.72,0 1.39,-0.14 2.11,-0.24c0.72,-0.05 1.05,-0.57 1.05,-1.34c0,-1.44 0.05,-2.83 0,-4.26c0,-0.96 0.19,-1.87 0.67,-2.68c0.38,-0.67 0.62,-1.44 1.01,-2.11c0.38,-0.72 0.53,-1.53 0.72,-2.3c0.67,-2.3 0.62,-4.65 0.48,-7.04c-0.14,-2.16 -0.77,-4.12 -1.63,-6.08c0,-0.05 0,-0.1 -0.05,-0.1c-0.86,-0.81 -0.72,-1.92 -0.62,-2.92c0.19,-2.59 0.24,-5.17 0.29,-7.76c0,-1.29 -1.48,-3.02 -2.73,-3.02c-0.24,0 -51.54,0.19 -56.71,0.05c-1.44,-0.05 -2.35,0.67 -2.97,1.87c-0.24,0.43 -0.19,30.61 -0.19,35.97c0,0.24 0,0.48 0,0.72c0.05,0.57 0.34,0.91 0.91,0.91c2.06,-0.29 4.26,0 6.37,-0.43z" id="svg_15"/>
    </g>
   </g>
  </g>
  <image display="none" height="308" id="svg_16" transform="matrix(0.8481 0 0 0.8481 21.9921 169.3878)" width="892" xlink:href="C7F80332.png"/>
 </g>
</svg>