<?xml version="1.0" encoding="utf-8"?>
<!-- Generator: Adobe Illustrator 26.1.0, SVG Export Plug-In . SVG Version: 6.00 Build 0)  -->
<svg version="1.1" id="Layer_1" xmlns="http://www.w3.org/2000/svg" xmlns:xlink="http://www.w3.org/1999/xlink" x="0px" y="0px"
	 viewBox="0 0 500 500" style="enable-background:new 0 0 500 500;" xml:space="preserve">
<style type="text/css">
	.st0{fill:#FFFFFF;}
</style>
<g>
	<g id="XMLID_00000080889172869408580730000016072118906044800698_">
		<g>
			<path class="st0" d="M439.4,283.9c0.4,11.4-2.1,22.4-8.7,31.8c-6,8.5-14,13.9-24.2,16.7c-6.1,1.7-12.1,1.6-18.1,1.6
				c-36.5,0.1-73,0-109.5,0c-1.6,0-3.2,0-4.8,0c-0.3-0.5-0.6-0.9-0.9-1.4c1.8-1.5,3.6-2.8,5.2-4.4c8.1-8,16.2-16.1,24.2-24.2
				c2.4-2.5,4.9-3.4,8.3-3.4c24.7,0.1,49.4,0,74.1,0c3.5,0,6.9-0.8,10.3-1.1c3.6-0.4,5.2-2.7,5.2-6.6c0.1-7,0.2-13.9,0-20.9
				c-0.1-4.8,0.9-9.1,3.3-13.3c1.9-3.3,3-7,4.9-10.2c2-3.5,2.5-7.4,3.6-11.2c3.2-11.3,3-22.9,2.3-34.5c-0.6-10.5-3.8-20.3-8-29.8
				c-0.1-0.2-0.1-0.4-0.1-0.5c-4.3-4.1-3.5-9.3-3.1-14.3c0.8-12.7,1.3-25.4,1.4-38.2c0-6.3-7.1-14.9-13.4-14.9
				c-1.1,0-252.5,0.8-277.9,0.2c-7.1-0.2-11.4,3.4-14.6,9.1c-1.2,2.2-1,149.9-1,176.3c0,1.2-0.1,2.3,0,3.5c0.3,2.8,1.6,4.4,4.4,4.3
				c10.6-0.3,21.2,1.1,31.7-0.9c2.9-0.5,5.9-0.4,8.9-0.6c0.5,1.7-1,2.1-1.6,2.8c-7.2,7.1-14.4,14.2-21.6,21.2
				c-4.2,4-9.1,7.1-13.1,11.4c-2.8,3-6.7,2.1-9.9,1.4c-16.6-3.4-28.2-13-33.8-29.2c-1.3-3.8-2.1-7.9-2-12.2
				c0.4-17.9,1.5-173.1,1.5-183.7c0-6.8,2.7-12.8,6.2-18.4c3.7-5.8,8-10.9,14.1-14.3c9.2-5.1,19-8,29.7-8.1
				c35.3,0,239.7,0,278.5,0.2c12.7,0.1,23.7,4.8,32.8,13.9c4.8,4.9,9.2,10,11.4,16.6c1.5,4.7,3.1,9.4,3,14.4
				C437.8,120.2,437.5,234.1,439.4,283.9z"/>
		</g>
	</g>
</g>
<path id="svg_14" class="st0" d="M386.1,193.5c2.4,8.4,2.4,17.4,1.9,26.1c-1.7,23.3-11.3,42.1-31.3,54.8c-6.1,4-13.2,5.9-20.2,7.8
	c-7.5,1.9-22.1,5.2-35.1-2.6c-8-5.9-5.9-5.2-12.2,0.7c-16.4,15.5-82.8,74.3-82.5,75.5c0.5,1.4,225.5,1.4,229.3,0
	c8.9,0,12,1.2,13.4,4.7c5.2,10.8,10.6,21.8,15.1,33.1c2.8,6.8,2.1,13.4-1.4,19.5c-6.6,11.7-16.7,18.1-30.3,18.1
	c-121.8,0-243.9,0-365.7,0c-12.2,0-21.8-5.2-28.9-14.6c-4.5-5.9-5-12.9-3.3-20c1.4-6.3,3.8-12.2,6.6-18.1c2.8-6.1,5-12.5,8-18.4
	c1.9-3.8,4.2-5.6,8.9-5.6c17.4,0.2,34.8,0,52.2,0c2.6,0,4.2-1.2,6.1-2.8c5-5,9.6-10.1,14.8-14.6c12.9-11,24.4-23.3,37.2-34.6
	c7.1-6.3,13.6-12.9,20.7-19.3c14.6-12.9,28.2-27.1,43-40c5.6-5,10.8-10.4,16.4-15.3c1.4-3,0.2-5.9-0.9-8.9
	c-0.9-7.5-1.2-15.3-0.2-22.8c1.2-9.9,4.7-18.8,10.1-27.1c8.4-12.9,19.7-21.8,34.1-27.3c4.5-1.7,8.9-3.3,13.9-3.3
	c2.6,0,5.2-1.2,7.8-1.2c11.3,0.5,22.3,1.4,32.9,6.1c-0.9,2.6-3.3,3.3-5,4.7c-10.6,9.6-21.2,19.5-32.5,28.5
	c-8.4,6.8-10.6,10.6-8.4,21.4c2.6,13.6,9.2,25.1,22.8,30.8c7.1,2.8,14.1,1.9,20-2.6c8.4-6.6,16-13.9,23.8-21.2
	c4.7-4.5,10.4-8.2,14.8-13.2c0.7-0.9,1.7-1.9,3-1.2C386.3,191.4,385.8,192.6,386.1,193.5L386.1,193.5z M302.1,404.4
	c11,0,9.2-8.7,9.2-8.7l-0.2-7.3c0,0,0.9-8.9-8.2-8.9c-1.4-0.2-92.6,0-96.7,0.2c-5.4,0-8.2,2.8-8.4,8.2c0,2.4,0,4.7,0,7.1
	c0.2,6.8,1.9,9.6,8.4,9.6C236.9,404.7,300.7,404.5,302.1,404.4L302.1,404.4z"/>
</svg>
